<svg xmlns="http://www.w3.org/2000/svg" width="1080" height="1920" viewBox="0 0 1080 1920"><defs><linearGradient id="story-bg" x1="0" x2="0" y1="0" y2="1"><stop offset="0%" stop-color="#020617"/><stop offset="100%" stop-color="#0f172a"/></linearGradient><linearGradient id="story-accent" x1="0" x2="1" y1="0" y2="1"><stop offset="0%" stop-color="#0f172a" stop-opacity=".1"/><stop offset="60%" stop-color="#0b1120" stop-opacity=".75"/><stop offset="100%" stop-color="#0a0f1b" stop-opacity=".95"/></linearGradient><radialGradient id="story-glow" cx=".15" cy=".1" r=".65"><stop offset="0%" stop-color="#fde047" stop-opacity=".45"/><stop offset="100%" stop-color="#fde047" stop-opacity="0"/></radialGradient><linearGradient id="story-stripe" x1="0" x2="1" y1="0" y2="1"><stop offset="0%" stop-color="#0f172a" stop-opacity="0"/><stop offset="100%" stop-color="#38bdf8" stop-opacity=".35"/></linearGradient></defs><rect width="1080" height="1920" fill="url(#story-bg)"/><rect width="1080" height="1920" fill="url(#story-accent)"/><rect width="1080" height="1920" fill="url(#story-glow)"/><path fill="#0b1220" d="M0 1320 Q 540 1460 1080 1280 L1080 1920 L0 1920 Z"/><path fill="#0d1524" d="M0 1500 Q 540 1700 1080 1480 L1080 1920 L0 1920 Z" opacity=".8"/><rect width="700" height="1600" x="-200" y="200" fill="url(#story-stripe)" transform="rotate(-15)"/><rect width="700" height="1600" x="600" y="-200" fill="url(#story-stripe)" opacity=".5" transform="rotate(15)"/><circle cx="880" cy="260" r="180" fill="#fde047" opacity=".08"/><circle cx="180" cy="520" r="220" fill="#38bdf8" opacity=".08"/><rect width="920" height="260" x="80" y="1500" fill="#0b1220" stroke="#1e293b" stroke-opacity=".4" opacity=".85" rx="40" ry="40"/></svg>