<?xml version="1.0" encoding="UTF-8"?>
<svg width="1080" height="1920" viewBox="0 0 1080 1920" xmlns="http://www.w3.org/2000/svg">
  <defs>
    <linearGradient id="story-bg" x1="0" y1="0" x2="0" y2="1">
      <stop offset="0%" stop-color="#020617"/>
      <stop offset="100%" stop-color="#0f172a"/>
    </linearGradient>
    <linearGradient id="story-accent" x1="0" y1="0" x2="1" y2="1">
      <stop offset="0%" stop-color="#0f172a" stop-opacity="0.1"/>
      <stop offset="60%" stop-color="#0b1120" stop-opacity="0.75"/>
      <stop offset="100%" stop-color="#0a0f1b" stop-opacity="0.95"/>
    </linearGradient>
    <radialGradient id="story-glow" cx="0.15" cy="0.1" r="0.65">
      <stop offset="0%" stop-color="#fde047" stop-opacity="0.45"/>
      <stop offset="100%" stop-color="#fde047" stop-opacity="0"/>
    </radialGradient>
    <linearGradient id="story-stripe" x1="0" y1="0" x2="1" y2="1">
      <stop offset="0%" stop-color="#0f172a" stop-opacity="0"/>
      <stop offset="100%" stop-color="#38bdf8" stop-opacity="0.35"/>
    </linearGradient>
  </defs>

  <rect width="1080" height="1920" fill="url(#story-bg)"/>
  <rect width="1080" height="1920" fill="url(#story-accent)"/>
  <rect width="1080" height="1920" fill="url(#story-glow)"/>

  <path d="M0 1320 Q 540 1460 1080 1280 L1080 1920 L0 1920 Z" fill="#0b1220"/>
  <path d="M0 1500 Q 540 1700 1080 1480 L1080 1920 L0 1920 Z" fill="#0d1524" opacity="0.8"/>

  <rect x="-200" y="200" width="700" height="1600" transform="rotate(-15)" fill="url(#story-stripe)"/>
  <rect x="600" y="-200" width="700" height="1600" transform="rotate(15)" fill="url(#story-stripe)" opacity="0.5"/>

  <circle cx="880" cy="260" r="180" fill="#fde047" opacity="0.08"/>
  <circle cx="180" cy="520" r="220" fill="#38bdf8" opacity="0.08"/>

  <rect x="80" y="1500" width="920" height="260" rx="40" ry="40" fill="#0b1220" opacity="0.85" stroke="#1e293b" stroke-opacity="0.4"/>
</svg>

